<svg xmlns="http://www.w3.org/2000/svg" viewBox="0 0 96 96">
  <defs>
    <clipPath id="shield">
      <path d="M48 8h33c-4 3-5 7-5 13v38c0 10-6 18-16 24L48 90 36 83c-10-6-16-14-16-24V21c0-6-1-10-5-13h33Z"/>
    </clipPath>
    <mask id="skull">
      <rect width="96" height="96" fill="#fff"/>
      <path fill="#000" d="M32 50c0-6 5-10 11-10 5 0 8 4 8 8 0 6-5 10-11 10-5 0-8-4-8-8Zm32 0c0-6-5-10-11-10-5 0-8 4-8 8 0 6 5 10 11 10 5 0 8-4 8-8Zm-20 12h8l5 11H39l5-11Z"/>
      <path fill="#000" d="M36 76h24v6H36zM41 69h4v14h-4zm7 0h4v14h-4z"/>
    </mask>
  </defs>
  <path fill="#fff" opacity=".62" d="M48 8h33c-4 3-5 7-5 13v38c0 10-6 18-16 24L48 90 36 83c-10-6-16-14-16-24V21c0-6-1-10-5-13h33Z"/>
  <g clip-path="url(#shield)" fill="#fff" opacity=".42">
    <path d="M52 5h5L30 90h-5L52 5Zm10 0h5L40 92h-5L62 5Zm10 0h5L50 92h-5L72 5Zm10 8h5L59 91h-5L82 13Z"/>
  </g>
  <path fill="#fff" opacity=".35" d="M48 8v82L36 83c-10-6-16-14-16-24V21c0-6-1-10-5-13h33Z"/>
  <path fill="#fff" opacity=".9" d="M31 45 17 37l15 18-17 4 20 2-13 10 20-9 6-17H31Zm34 0 14-8-15 18 17 4-20 2 13 10-20-9-6-17h17Z"/>
  <path fill="#fff" mask="url(#skull)" d="M48 30c-15 0-27 11-27 25 0 9 6 16 13 20v8h28v-8c7-4 13-11 13-20 0-14-12-25-27-25Zm-14 44h28l3 8H31l3-8Z"/>
</svg>
