<svg xmlns="http://www.w3.org/2000/svg" viewBox="0 0 512 512"><g transform="translate(0 448) scale(1 -1)"><path d="M528.12 146.681c-2.4834 -10.9268 -12.1973 -18.6807 -23.4033 -18.6807h-293.145l6.54492 -32h268.418c15.4004 0 26.8154 -14.3008 23.4033 -29.3193l-5.51758 -24.2754c18.6914 -9.07324 31.5791 -28.2334 31.5791 -50.4053c0 -30.9277 -25.0723 -56 -56 -56
s-56 25.0723 -56 56c0 15.6738 6.44727 29.835 16.8232 40h-209.647c10.377 -10.165 16.8242 -24.3262 16.8242 -40c0 -30.9277 -25.0723 -56 -56 -56s-56 25.0723 -56 56c0 20.7783 11.3252 38.9004 28.1309 48.5654l-70.248 343.435h-69.8828
c-13.2549 0 -24 10.7451 -24 24v16c0 13.2549 10.7451 24 24 24h102.529c11.4004 0 21.2285 -8.02148 23.5127 -19.1904l9.16602 -44.8096h392.782c15.4004 0 26.8154 -14.3008 23.4023 -29.3193z"/></g></svg>
