<svg xmlns="http://www.w3.org/2000/svg" viewBox="0 0 512 512"><g transform="translate(0 448) scale(1 -1)"><path d="M256 440c137 0 248 -111 248 -248s-111 -248 -248 -248s-248 111 -248 248s111 248 248 248zM377.6 126.9l-65.5996 65.0996l65.7002 65c4.7002 4.7002 4.7002 12.2998 0 17l-39.6006 39.5996c-4.69922 4.7002 -12.2998 4.7002 -17 0l-65.0996 -65.5996l-65 65.7002
c-4.7002 4.7002 -12.2998 4.7002 -17 0l-39.5996 -39.6006c-4.7002 -4.69922 -4.7002 -12.2998 0 -17l65.5996 -65.0996l-65.5996 -65c-4.7002 -4.7002 -4.7002 -12.2998 0 -17l39.5 -39.5996c4.69922 -4.7002 12.2998 -4.7002 17 0l65.0996 65.5996l65 -65.5996
c4.7002 -4.7002 12.2998 -4.7002 17 0l39.5996 39.5c4.7002 4.69922 4.7002 12.2998 0 17z"/></g></svg>
