<svg xmlns="http://www.w3.org/2000/svg" viewBox="0 0 512 512"><g transform="translate(0 448) scale(1 -1)"><path d="M569.517 7.9873c18.458 -31.9941 -4.71094 -71.9873 -41.5762 -71.9873h-479.887c-36.9365 0 -59.999 40.0547 -41.5771 71.9873l239.946 416.027c18.4668 32.0098 64.7197 31.9512 83.1543 0zM288 94c-25.4053 0 -46 -20.5947 -46 -46s20.5947 -46 46 -46
s46 20.5947 46 46s-20.5947 46 -46 46zM244.327 259.346l7.41797 -136c0.34668 -6.36328 5.6084 -11.3457 11.9814 -11.3457h48.5469c6.37305 0 11.6348 4.98242 11.9814 11.3457l7.41797 136c0.375 6.87402 -5.09766 12.6543 -11.9814 12.6543h-63.3838
c-6.88379 0 -12.3555 -5.78027 -11.9805 -12.6543z"/></g></svg>
