<svg xmlns="http://www.w3.org/2000/svg" viewBox="0 0 512 512"><g transform="translate(0 448) scale(1 -1)"><path d="M104 224c13.2549 0 24 -10.7451 24 -24v-240c0 -13.2549 -10.7451 -24 -24 -24h-80c-13.2549 0 -24 10.7451 -24 24v240c0 13.2549 10.7451 24 24 24h80zM64 -24c13.2549 0 24 10.7451 24 24s-10.7451 24 -24 24s-24 -10.7451 -24 -24s10.7451 -24 24 -24zM384 366.548
c0 -42.416 -25.9697 -66.208 -33.2773 -94.5479h101.724c33.3965 0 59.3965 -27.7461 59.5527 -58.0977c0.0839844 -17.9385 -7.5459 -37.249 -19.4395 -49.1973l-0.109375 -0.110352c9.83594 -23.3369 8.23633 -56.0371 -9.30859 -79.4688
c8.68164 -25.8945 -0.0683594 -57.7041 -16.3818 -74.7568c4.29785 -17.5977 2.24414 -32.5752 -6.14746 -44.6318c-20.4102 -29.3242 -70.9961 -29.7373 -113.773 -29.7373l-2.84473 0.000976562c-48.2871 0.0166016 -87.8057 17.5977 -119.561 31.7246
c-15.957 7.09961 -36.8203 15.8877 -52.6504 16.1787c-6.54004 0.120117 -11.7832 5.45703 -11.7832 11.998v213.77c0 3.2002 1.28223 6.27148 3.55762 8.52148c39.6143 39.1436 56.6484 80.5869 89.1172 113.11c14.8037 14.832 20.1885 37.2363 25.3936 58.9023
c4.44629 18.501 13.749 57.7939 33.9316 57.7939c24 0 72 -8 72 -81.4521z"/></g></svg>
