<svg xmlns="http://www.w3.org/2000/svg" viewBox="0 0 512 512"><g transform="translate(0 448) scale(1 -1)"><path d="M487.4 132.3c4.89941 -2.7998 7.09961 -8.59961 5.59961 -14.0996c-11.0996 -35.7002 -30 -67.9004 -54.7002 -94.6006c-3.7998 -4.19922 -9.89941 -5.09961 -14.7998 -2.2998l-42.5996 24.6006c-18 -15.3008 -38.6006 -27.2002 -60.8008 -35.1006v-49.2002
c0 -5.59961 -3.89941 -10.5 -9.39941 -11.6992c-34.9004 -7.80078 -72.5 -8.2002 -109.2 0c-5.5 1.19922 -9.40039 6.09961 -9.40039 11.6992v49.2002c-22.2998 7.7998 -42.8994 19.7002 -60.7998 35.1006l-42.5996 -24.6006c-4.7998 -2.7998 -11 -1.7998 -14.7998 2.2998
c-24.7002 26.8008 -43.6006 59 -54.7002 94.6006c-1.60059 5.39941 0.599609 11.2002 5.5 14l42.5996 24.5996c-4.2998 23.2002 -4.2998 47 0 70.2002l-42.5996 24.5996c-4.90039 2.80078 -7.2002 8.60059 -5.5 14c11.0996 35.7002 30 67.9004 54.7002 94.6006
c3.7998 4.2002 9.89941 5.09961 14.7998 2.2998l42.5 -24.5996c18 15.2998 38.5996 27.1992 60.7998 35.0996v49.2002c0 5.59961 3.90039 10.5 9.40039 11.7002c34.8994 7.7998 72.5 8.19922 109.199 0c5.5 -1.2002 9.40039 -6.10059 9.40039 -11.7002v-49.1006
c22.2998 -7.7998 42.9004 -19.6992 60.7998 -35.0996l42.6006 24.5996c4.7998 2.80078 11 1.80078 14.7998 -2.2998c24.7002 -26.7998 43.5996 -59 54.7002 -94.5996c1.59961 -5.40039 -0.600586 -11.2002 -5.5 -14l-42.6006 -24.6006
c4.2998 -23.1992 4.2998 -47 0 -70.1992zM256 112c44.0996 0 80 35.9004 80 80s-35.9004 80 -80 80s-80 -35.9004 -80 -80s35.9004 -80 80 -80z"/></g></svg>
