<svg xmlns="http://www.w3.org/2000/svg" viewBox="0 0 512 512"><g transform="translate(0 448) scale(1 -1)"><path d="M0 392c0 13.2549 10.7451 24 24 24h80c13.2549 0 24 -10.7451 24 -24v-240c0 -13.2549 -10.7451 -24 -24 -24h-80c-13.2549 0 -24 10.7451 -24 24v240zM40 192c0 -13.2549 10.7451 -24 24 -24s24 10.7451 24 24s-10.7451 24 -24 24s-24 -10.7451 -24 -24zM312 -64
c-20.1826 0 -29.4854 39.293 -33.9307 57.7949c-5.20605 21.666 -10.5889 44.0703 -25.3936 58.9023c-32.4688 32.5234 -49.5029 73.9668 -89.1172 113.11c-2.19727 2.17285 -3.55762 5.19043 -3.55762 8.52148v213.77c0 6.54102 5.24316 11.8779 11.7832 11.998
c15.8311 0.290039 36.6934 9.0791 52.6504 16.1787c31.7549 14.127 71.2744 31.708 119.561 31.7246h2.84375c42.7773 0 93.3633 -0.413086 113.774 -29.7373c8.3916 -12.0566 10.4453 -27.0342 6.14746 -44.6318c16.3125 -17.0527 25.0635 -48.8633 16.3818 -74.7568
c17.5439 -23.4316 19.1436 -56.1318 9.30859 -79.4688l0.109375 -0.110352c11.8936 -11.9492 19.5234 -31.2588 19.4395 -49.1973c-0.15625 -30.3516 -26.1572 -58.0977 -59.5527 -58.0977h-101.725c7.30762 -28.3398 33.2773 -52.1318 33.2773 -94.5479
c0 -73.4521 -48 -81.4521 -72 -81.4521z"/></g></svg>
