<svg xmlns="http://www.w3.org/2000/svg" viewBox="0 0 512 512"><g transform="translate(0 448) scale(1 -1)"><path d="M440.65 435.43c-0.00976562 0.192383 -0.0136719 0.375977 -0.0136719 0.570312c0 6.62109 5.37305 11.9961 11.9932 12h47.3701c6.62305 0 12 -5.37695 12 -12v-200.35c0 -6.62305 -5.37695 -12 -12 -12h-200.22c-6.62305 0 -12 5.37695 -12 12v47.4092
c0 0.00488281 -0.00878906 0.00976562 -0.00878906 0.0136719c0 6.62305 5.37695 12 12 12c0.194336 0 0.386719 -0.00390625 0.578125 -0.0136719l101.46 -4.85938c-31.5938 46.9941 -85.1406 77.6738 -145.973 77.6738c-82.8662 0 -152.428 -57.4229 -171.027 -134.614
c-1.24219 -5.29688 -5.99707 -9.25391 -11.6699 -9.25977h-49.0498c-6.62305 0 -12 5.36719 -12 11.9893c0 0.748047 0.0693359 1.48047 0.200195 2.19043c21.6201 114.9 122.44 201.82 243.54 201.82c0.0966797 0 0.123047 0.141602 0.219727 0.141602
c75.5615 0 143.248 -33.9814 188.601 -87.4814zM255.83 16c0.015625 0 0.0185547 0.0898438 0.0332031 0.0898438c82.8701 0 152.43 57.4434 170.997 134.65c1.24219 5.29688 5.99707 9.25391 11.6699 9.25977h49.0498c6.62305 0 12 -5.36719 12 -11.9893
c0 -0.748047 -0.0693359 -1.48047 -0.200195 -2.19043c-21.6201 -114.9 -122.439 -201.82 -243.55 -201.82c-0.0800781 0 -0.0908203 -0.140625 -0.170898 -0.140625c-75.4814 0 -143.106 33.9082 -188.459 87.3105l4.14941 -82.5703
c0.0107422 -0.201172 0.015625 -0.395508 0.015625 -0.599609c0 -6.62305 -5.37695 -12 -12 -12h-0.015625h-47.3496c-6.62305 0 -12 5.37695 -12 12v200.33c0 6.62305 5.37695 12 12 12h200.2c6.62305 0 12 -5.37695 12 -12v-47.4004
c0 -0.00390625 0.0078125 -0.00878906 0.0078125 -0.0136719c0 -6.62305 -5.37695 -12 -12 -12c-0.193359 0 -0.386719 0.00488281 -0.578125 0.0136719l-101.8 4.87012c31.5254 -47.0088 85.0449 -77.7998 145.847 -77.7998h0.15332z"/></g></svg>
