<svg xmlns="http://www.w3.org/2000/svg" viewBox="0 0 512 512"><g transform="translate(0 448) scale(1 -1)"><path d="M242.72 192l100.07 -100.07c12.2803 -12.29 12.2803 -32.1992 0 -44.4795l-22.2402 -22.2402c-12.2803 -12.2803 -32.2002 -12.2803 -44.4795 0l-100.07 100.07l-100.07 -100.07c-12.2793 -12.2803 -32.1992 -12.2803 -44.4795 0l-22.2402 22.2402
c-12.2803 12.29 -12.2803 32.2002 0 44.4795l100.07 100.07l-100.07 100.07c-12.2803 12.29 -12.2803 32.1992 0 44.4795l22.2402 22.2402c12.29 12.2803 32.2002 12.2803 44.4795 0l100.07 -100.07l100.07 100.07c12.29 12.2803 32.1992 12.2803 44.4795 0
l22.2402 -22.2402c12.2803 -12.29 12.2803 -32.2002 0 -44.4795z"/></g></svg>
