<svg xmlns="http://www.w3.org/2000/svg" viewBox="0 0 96 96">
  <defs>
    <mask id="shield-cut">
      <rect width="96" height="96" fill="#fff"/>
      <path fill="#000" d="M48 8h33c-4 3-5 7-5 13v38c0 10-6 18-16 24L48 90 36 83c-10-6-16-14-16-24V21c0-6-1-10-5-13h33Z"/>
      <path fill="#fff" d="M48 8h33c-4 3-5 7-5 13v38c0 10-6 18-16 24L48 90 36 83c-10-6-16-14-16-24V21c0-6-1-10-5-13h33Z"/>
      <path fill="#000" d="M52 8h5L33 86l-5-3L52 8Zm10 0h5L39 89l-5-3L62 8Zm10 0h5L47 90l-5-2L72 8Zm6 13c0-2 0-4 1-6L51 88l-4 2 31-69Zm-2 23v12L60 83l-5 3 21-42Z"/>
      <path fill="#000" d="M46 28c-14 0-25 10-25 23 0 8 5 15 12 19l-13 8-6-5 11-7-16-1 2-7 17 2-16-13 5-5 18 13c-4-8-2-16 3-22l-12 1-2-7 16-3h6Zm4 0h6l16 3-2 7-12-1c5 6 7 14 3 22l18-13 5 5-16 13 17-2 2 7-16 1 11 7-6 5-13-8c7-4 12-11 12-19 0-13-11-23-25-23Z"/>
      <path fill="#fff" d="M31 50c0-6 5-11 12-11 5 0 8 4 8 9 0 6-5 11-12 11-5 0-8-4-8-9Zm34 0c0-6-5-11-12-11-5 0-8 4-8 9 0 6 5 11 12 11 5 0 8-4 8-9Zm-21 12h8l6 12H38l6-12Z"/>
      <path fill="#000" d="M35 76h26v7H35z"/>
      <path fill="#fff" d="M39 69h4v15h-4zm7 0h4v15h-4zm7 0h4v15h-4z"/>
    </mask>
  </defs>
  <path fill="#fff" mask="url(#shield-cut)" d="M48 8h33c-4 3-5 7-5 13v38c0 10-6 18-16 24L48 90 36 83c-10-6-16-14-16-24V21c0-6-1-10-5-13h33Z"/>
</svg>
