<svg xmlns="http://www.w3.org/2000/svg" viewBox="0 0 96 96">
  <defs>
    <mask id="banner-cut">
      <rect width="96" height="96" fill="#fff"/>
      <path fill="#000" d="M48 14c-18 0-32 13-32 30 0 11 6 19 14 24v13h36V68c8-5 14-13 14-24 0-17-14-30-32-30Z"/>
    </mask>
    <mask id="skull-cut">
      <rect width="96" height="96" fill="#fff"/>
      <path fill="#000" d="M26 42c0-7 6-12 13-12 6 0 10 4 10 9 0 7-6 12-13 12-6 0-10-4-10-9Zm44 0c0-7-6-12-13-12-6 0-10 4-10 9 0 7 6 12 13 12 6 0 10-4 10-9Z"/>
      <path fill="#000" d="M43 53h10l6 13H37l6-13Z"/>
      <path fill="#000" d="M34 75h28v6H34z"/>
      <path fill="#000" d="M38 66h4v17h-4zm7 0h4v17h-4zm7 0h4v17h-4z"/>
      <path fill="#000" d="M31 59h7l-3 8-6-3 2-5Zm34 0h-7l3 8 6-3-2-5Z"/>
    </mask>
  </defs>
  <path fill="#fff" mask="url(#banner-cut)" d="M48 2 62 13h17v11h-6v36L48 92 23 60V24h-6V13h17L48 2Zm0 10-8 7H30v5h36v-5H56l-8-7ZM33 29v30l15 20 15-20V29H33ZM26 26 1 39l31 10V36l-6-10Zm44 0 25 13-31 10V36l6-10ZM23 47 0 60l32 9V55l-9-8Zm50 0 23 13-32 9V55l9-8ZM22 66 4 88l29-4V72l-11-6Zm52 0 18 22-29-4V72l11-6ZM18 12 3 28l22 6v-9l-7-13Zm60 0 15 16-22 6v-9l7-13ZM31 9 39 0l9 12 9-12 8 9-8 9H39l-8-9Zm11 11h12l5 7H37l5-7Z"/>
  <path fill="#fff" d="M18 24c11 0 22 6 30 18l-7 7C35 37 27 29 18 24Zm60 0c-11 0-22 6-30 18l7 7c6-12 14-20 23-25ZM30 15l18-9 18 9-8 8H38l-8-8Z"/>
  <path fill="#fff" mask="url(#skull-cut)" d="M48 19c-16 0-28 11-28 25 0 10 6 17 13 22v15h30V66c7-5 13-12 13-22 0-14-12-25-28-25Zm-14 47h28l4 10H30l4-10Z"/>
</svg>
