<svg xmlns="http://www.w3.org/2000/svg" viewBox="0 0 96 96">
  <defs>
    <mask id="difficulty-normal-cut">
      <rect width="96" height="96" fill="#fff"/>
      <path fill="#000" d="M48 29c-9 0-16 7-16 16 0 6 3 10 7 13v7h18v-7c4-3 7-7 7-13 0-9-7-16-16-16Z"/>
      <path fill="#fff" d="M38 44c0-3 2-5 5-5 2 0 4 2 4 4 0 3-2 5-5 5-2 0-4-2-4-4Zm20 0c0-3-2-5-5-5-2 0-4 2-4 4 0 3 2 5 5 5 2 0 4-2 4-4Zm-13 8h6l3 7H42l3-7Z"/>
      <path d="M41 67c4-3 10-3 14 0" fill="none" stroke="#000" stroke-width="5" stroke-linecap="round"/>
    </mask>
  </defs>
  <path fill="#fff" mask="url(#difficulty-normal-cut)" d="M48 4 60 15h18v11h-7v34L48 92 25 60V26h-7V15h18L48 4Zm0 11-7 7H30v4h36v-4H55l-7-7ZM34 31v28l14 20 14-20V31H34ZM28 36 10 48l22 7V43l-4-7Zm40 0 18 12-22 7V43l4-7Zm7-16 10 9-14 4v-7l4-6Zm-54 0-10 9 14 4v-7l-4-6Z"/>
</svg>
