<svg xmlns="http://www.w3.org/2000/svg" viewBox="0 0 96 96">
  <defs>
    <clipPath id="shield">
      <path d="M48 8h33c-4 3-5 7-5 13v38c0 10-6 18-16 24L48 90 36 83c-10-6-16-14-16-24V21c0-6-1-10-5-13h33Z"/>
    </clipPath>
    <mask id="skull">
      <rect width="96" height="96" fill="#fff"/>
      <path fill="#000" d="M35 52c0-5 4-8 9-8 4 0 7 3 7 7 0 5-4 8-9 8-4 0-7-3-7-7Zm26 0c0-5-4-8-9-8-4 0-7 3-7 7 0 5 4 8 9 8 4 0 7-3 7-7Zm-17 10h8l4 9H40l4-9Z"/>
      <path fill="#000" d="M38 74h20v5H38zM43 68h3v12h-3zm7 0h3v12h-3z"/>
    </mask>
  </defs>
  <path fill="#fff" opacity=".62" d="M48 8h33c-4 3-5 7-5 13v38c0 10-6 18-16 24L48 90 36 83c-10-6-16-14-16-24V21c0-6-1-10-5-13h33Z"/>
  <g clip-path="url(#shield)" fill="#fff" opacity=".42">
    <path d="M52 5h5L30 90h-5L52 5Zm10 0h5L40 92h-5L62 5Zm10 0h5L50 92h-5L72 5Zm10 8h5L59 91h-5L82 13Z"/>
  </g>
  <path fill="#fff" opacity=".35" d="M48 8v82L36 83c-10-6-16-14-16-24V21c0-6-1-10-5-13h33Z"/>
  <path fill="#fff" mask="url(#skull)" d="M48 35c-13 0-23 9-23 21 0 8 5 14 12 18v8h22v-8c7-4 12-10 12-18 0-12-10-21-23-21Zm-12 38h24l2 8H34l2-8Z"/>
</svg>
