<svg xmlns="http://www.w3.org/2000/svg" viewBox="0 0 64 64">
  <mask id="m">
    <rect width="64" height="64" fill="#fff"/>
    <circle cx="32" cy="27" r="10" fill="#000"/>
    <circle cx="28" cy="25" r="2" fill="#fff"/>
    <circle cx="36" cy="25" r="2" fill="#fff"/>
    <path d="M28 33h8v6h-8z" fill="#000"/>
    <path d="M24 44c4-4 12-4 16 0" fill="none" stroke="#000" stroke-width="4" stroke-linecap="round"/>
  </mask>
  <path d="M15 9h34v34L32 58 15 43V9Z" mask="url(#m)"/>
  <path d="M13 22 0 34l17 4v-9l-4-7Zm38 0 13 12-17 4v-9l4-7Z"/>
  <path d="M12 35 0 46l17 3v-8l-5-6Zm40 0 12 11-17 3v-8l5-6Z"/>
  <path d="M13 47 3 58l15-1v-7l-5-3Zm38 0 10 11-15-1v-7l5-3Z"/>
</svg>
