<svg xmlns="http://www.w3.org/2000/svg" viewBox="0 0 96 96">
  <defs>
    <mask id="banner-cut">
      <rect width="96" height="96" fill="#fff"/>
      <path fill="#000" d="M48 20c-15 0-27 11-27 25 0 9 5 16 11 20v11h32V65c6-4 11-11 11-20 0-14-12-25-27-25Z"/>
    </mask>
    <mask id="skull-cut">
      <rect width="96" height="96" fill="#fff"/>
      <path fill="#000" d="M30 43c0-6 5-10 11-10 5 0 8 4 8 8 0 6-5 10-11 10-5 0-8-4-8-8Zm36 0c0-6-5-10-11-10-5 0-8 4-8 8 0 6 5 10 11 10 5 0 8-4 8-8Z"/>
      <path fill="#000" d="M44 52h8l5 11H39l5-11Z"/>
      <path fill="#000" d="M36 70h24v5H36z"/>
      <path fill="#000" d="M41 64h3v13h-3zm6 0h3v13h-3zm6 0h3v13h-3z"/>
    </mask>
  </defs>
  <path fill="#fff" mask="url(#banner-cut)" d="M48 3 61 14h17v11h-7v35L48 92 25 60V25h-7V14h17L48 3Zm0 11-8 7H30v4h36v-4H56l-8-7ZM34 30v29l14 20 14-20V30H34ZM28 31 5 43l27 8V39l-4-8Zm40 0 23 12-27 8V39l4-8ZM25 50 3 63l29 7V56l-7-6Zm46 0 22 13-29 7V56l7-6ZM20 16 7 29l18 5v-9l-5-9Zm56 0 13 13-18 5v-9l5-9ZM38 10 48 0l10 10-10 6-10-6Z"/>
  <path fill="#fff" d="M27 29c8 0 15 4 20 11l-5 5c-4-7-9-11-15-16Zm42 0c-8 0-15 4-20 11l5 5c4-7 9-11 15-16Z"/>
  <path fill="#fff" mask="url(#skull-cut)" d="M48 24c-13 0-23 9-23 21 0 8 4 14 10 18v13h26V63c6-4 10-10 10-18 0-12-10-21-23-21Zm-12 39h24l3 8H33l3-8Z"/>
</svg>
