<svg xmlns="http://www.w3.org/2000/svg" viewBox="0 0 96 96">
  <mask id="difficulty-mask">
    <rect width="96" height="96" fill="#fff"/>
    <path fill="#000" d="M48 22c-12 0-21 9-21 20 0 7 4 12 9 16v9h24v-9c5-4 9-9 9-16 0-11-9-20-21-20Z"/>
    <path fill="#fff" d="M36 42c0-4 3-7 7-7 3 0 5 2 5 5 0 4-3 7-7 7-3 0-5-2-5-5Zm24 0c0-4-3-7-7-7-3 0-5 2-5 5 0 4 3 7 7 7 3 0 5-2 5-5Z"/>
    <path fill="#fff" d="M44 52h8l4 9H40l4-9Z"/>
    <path d="M36 70c7-5 17-5 24 0" fill="none" stroke="#000" stroke-width="7" stroke-linecap="round"/>
  </mask>
  <path d="M23 8h50v53L48 88 23 61V8Z" mask="url(#difficulty-mask)"/>
  <path d="M31 14h34v6H31z"/>
</svg>
