<svg xmlns="http://www.w3.org/2000/svg" viewBox="0 0 96 96">
  <defs>
    <mask id="skull-cut">
      <rect width="96" height="96" fill="#fff"/>
      <path fill="#000" d="M31 45c0-6 5-11 12-11 5 0 8 4 8 9 0 6-5 11-12 11-5 0-8-4-8-9Zm34 0c0-6-5-11-12-11-5 0-8 4-8 9 0 6 5 11 12 11 5 0 8-4 8-9Zm-21 12h8l6 12H38l6-12Z"/>
      <path fill="#000" d="M36 73h24v6H36z"/>
      <path fill="#000" d="M40 66h4v15h-4zm6 0h4v15h-4zm6 0h4v15h-4z"/>
    </mask>
  </defs>
  <path fill="none" stroke="#fff" stroke-width="5" stroke-linejoin="miter" d="M48 9 86 80H10L48 9Z"/>
  <path fill="#fff" d="M27 17 48 4l21 13-9 7H36l-9-7Zm-6 6 27 18-5 7C36 37 28 29 21 23Zm54 0C68 29 60 37 53 48l-5-7 27-18Z"/>
  <path fill="#fff" mask="url(#skull-cut)" d="M48 24c-14 0-25 10-25 23 0 8 5 15 12 19v13h26V66c7-4 12-11 12-19 0-13-11-23-25-23Zm-12 42h24l3 8H33l3-8Z"/>
</svg>
