<svg xmlns="http://www.w3.org/2000/svg" viewBox="0 0 96 96">
  <defs>
    <mask id="shield-cut">
      <rect width="96" height="96" fill="#fff"/>
      <path fill="#000" d="M48 8h33c-4 3-5 7-5 13v38c0 10-6 18-16 24L48 90 36 83c-10-6-16-14-16-24V21c0-6-1-10-5-13h33Z"/>
      <path fill="#fff" d="M48 8h33c-4 3-5 7-5 13v38c0 10-6 18-16 24L48 90 36 83c-10-6-16-14-16-24V21c0-6-1-10-5-13h33Z"/>
      <path fill="#000" d="M52 8h5L33 86l-5-3L52 8Zm10 0h5L39 89l-5-3L62 8Zm10 0h5L47 90l-5-2L72 8Zm6 13c0-2 0-4 1-6L51 88l-4 2 31-69Zm-2 23v12L60 83l-5 3 21-42Z"/>
      <path fill="#000" d="M47 36c-10 0-18 7-18 17 0 6 4 10 8 13l-9 6-4-4 7-4-10-1 1-5 12 1-11-8 3-4 13 9c-2-5-1-10 2-14l-8 1-2-5 12-2h4Zm2 0h4l12 2-2 5-8-1c3 4 4 9 2 14l13-9 3 4-11 8 12-1 1 5-10 1 7 4-4 4-9-6c4-3 8-7 8-13 0-10-8-17-18-17Z"/>
      <path fill="#fff" d="M36 52c0-4 3-7 7-7 3 0 5 2 5 5 0 4-3 7-7 7-3 0-5-2-5-5Zm24 0c0-4-3-7-7-7-3 0-5 2-5 5 0 4 3 7 7 7 3 0 5-2 5-5Zm-15 8h6l4 9H41l4-9Z"/>
      <path fill="#000" d="M39 71h18v5H39z"/>
      <path fill="#fff" d="M43 68h3v9h-3zm7 0h3v9h-3z"/>
    </mask>
  </defs>
  <path fill="#fff" mask="url(#shield-cut)" d="M48 8h33c-4 3-5 7-5 13v38c0 10-6 18-16 24L48 90 36 83c-10-6-16-14-16-24V21c0-6-1-10-5-13h33Z"/>
</svg>
