<svg xmlns="http://www.w3.org/2000/svg" viewBox="0 0 96 96">
  <defs>
    <clipPath id="shield">
      <path d="M48 8h33c-4 3-5 7-5 13v38c0 10-6 18-16 24L48 90 36 83c-10-6-16-14-16-24V21c0-6-1-10-5-13h33Z"/>
    </clipPath>
    <mask id="skull">
      <rect width="96" height="96" fill="#fff"/>
      <path fill="#000" d="M29 48c0-7 6-12 13-12 6 0 9 4 9 9 0 7-6 12-13 12-6 0-9-4-9-9Zm38 0c0-7-6-12-13-12-6 0-9 4-9 9 0 7 6 12 13 12 6 0 9-4 9-9Zm-23 13h8l6 13H38l6-13Z"/>
      <path fill="#000" d="M34 77h28v7H34zM39 68h4v17h-4zm7 0h4v17h-4zm7 0h4v17h-4z"/>
    </mask>
  </defs>
  <path fill="#fff" opacity=".62" d="M48 8h33c-4 3-5 7-5 13v38c0 10-6 18-16 24L48 90 36 83c-10-6-16-14-16-24V21c0-6-1-10-5-13h33Z"/>
  <g clip-path="url(#shield)" fill="#fff" opacity=".42">
    <path d="M52 5h5L30 90h-5L52 5Zm10 0h5L40 92h-5L62 5Zm10 0h5L50 92h-5L72 5Zm10 8h5L59 91h-5L82 13Z"/>
  </g>
  <path fill="#fff" opacity=".35" d="M48 8v82L36 83c-10-6-16-14-16-24V21c0-6-1-10-5-13h33Z"/>
  <path fill="#fff" opacity=".9" d="M29 41 12 31l18 22-21 5 24 3-16 12 25-11 6-21H29Zm38 0 17-10-18 22 21 5-24 3 16 12-25-11-6-21h19Z"/>
  <path fill="#fff" mask="url(#skull)" d="M48 25c-17 0-30 12-30 28 0 10 6 18 15 23v8h30v-8c9-5 15-13 15-23 0-16-13-28-30-28Zm-15 50h30l4 9H29l4-9Z"/>
</svg>
