<svg xmlns="http://www.w3.org/2000/svg" viewBox="0 0 96 96">
  <defs>
    <mask id="shield-cut">
      <rect width="96" height="96" fill="#fff"/>
      <path fill="#000" d="M48 8h33c-4 3-5 7-5 13v38c0 10-6 18-16 24L48 90 36 83c-10-6-16-14-16-24V21c0-6-1-10-5-13h33Z"/>
      <path fill="#fff" d="M48 8h33c-4 3-5 7-5 13v38c0 10-6 18-16 24L48 90 36 83c-10-6-16-14-16-24V21c0-6-1-10-5-13h33Z"/>
      <path fill="#000" d="M52 8h5L33 86l-5-3L52 8Zm10 0h5L39 89l-5-3L62 8Zm10 0h5L47 90l-5-2L72 8Zm6 13c0-2 0-4 1-6L51 88l-4 2 31-69Zm-2 23v12L60 83l-5 3 21-42Z"/>
      <path fill="#000" d="M47 32c-12 0-22 9-22 20 0 7 4 13 10 16l-11 7-5-5 9-5-13-1 2-6 14 1-13-10 4-5 15 11c-3-6-2-13 2-18l-10 1-2-6 14-2h6Zm2 0h6l14 2-2 6-10-1c4 5 5 12 2 18l15-11 4 5-13 10 14-1 2 6-13 1 9 5-5 5-11-7c6-3 10-9 10-16 0-11-10-20-22-20Z"/>
      <path fill="#fff" d="M34 51c0-5 4-9 9-9 4 0 7 3 7 7 0 5-4 9-9 9-4 0-7-3-7-7Zm28 0c0-5-4-9-9-9-4 0-7 3-7 7 0 5 4 9 9 9 4 0 7-3 7-7Zm-18 10h8l5 11H39l5-11Z"/>
      <path fill="#000" d="M37 74h22v6H37z"/>
      <path fill="#fff" d="M42 69h3v12h-3zm7 0h3v12h-3z"/>
    </mask>
  </defs>
  <path fill="#fff" mask="url(#shield-cut)" d="M48 8h33c-4 3-5 7-5 13v38c0 10-6 18-16 24L48 90 36 83c-10-6-16-14-16-24V21c0-6-1-10-5-13h33Z"/>
</svg>
