<svg xmlns="http://www.w3.org/2000/svg" viewBox="0 0 96 96">
  <defs>
    <mask id="skull">
      <rect width="96" height="96" fill="#fff"/>
      <path fill="#000" d="M29 47c0-7 6-12 13-12 6 0 9 4 9 9 0 7-6 12-13 12-6 0-9-4-9-9Zm38 0c0-7-6-12-13-12-6 0-9 4-9 9 0 7 6 12 13 12 6 0 9-4 9-9Zm-23 13h8l6 13H38l6-13Z"/>
      <path fill="#000" d="M34 77h28v7H34zM39 68h4v17h-4zm7 0h4v17h-4zm7 0h4v17h-4z"/>
    </mask>
  </defs>
  <path fill="none" stroke="#fff" stroke-width="5" stroke-linejoin="miter" opacity=".95" d="M48 8 87 81H9L48 8Z"/>
  <path fill="#fff" opacity=".35" d="M48 17 77 72H19L48 17Z"/>
  <path fill="#fff" opacity=".9" d="M30 26 48 13l18 13-8 7H38l-8-7Zm-9 2 27 20-6 8C35 43 27 34 21 28Zm54 0c-6 6-14 15-21 28l-6-8 27-20Z"/>
  <path fill="#fff" mask="url(#skull)" d="M48 25c-17 0-30 12-30 28 0 10 6 18 15 23v8h30v-8c9-5 15-13 15-23 0-16-13-28-30-28Zm-15 50h30l4 9H29l4-9Z"/>
</svg>
