<svg xmlns="http://www.w3.org/2000/svg" viewBox="0 0 96 96">
  <defs>
    <mask id="banner-cut">
      <rect width="96" height="96" fill="#fff"/>
      <path fill="#000" d="M48 27c-11 0-20 8-20 19 0 7 4 12 8 15v9h24v-9c4-3 8-8 8-15 0-11-9-19-20-19Z"/>
    </mask>
    <mask id="skull-cut">
      <rect width="96" height="96" fill="#fff"/>
      <path fill="#000" d="M35 44c0-4 3-7 7-7 4 0 6 3 6 6 0 4-3 7-7 7-4 0-6-3-6-6Zm26 0c0-4-3-7-7-7-4 0-6 3-6 6 0 4 3 7 7 7 4 0 6-3 6-6Z"/>
      <path fill="#000" d="M45 51h6l4 8H41l4-8Z"/>
      <path fill="#000" d="M39 65h18v4H39z"/>
      <path fill="#000" d="M43 61h3v10h-3zm7 0h3v10h-3z"/>
    </mask>
  </defs>
  <path fill="#fff" mask="url(#banner-cut)" d="M48 4 60 15h18v11h-7v34L48 92 25 60V26h-7V15h18L48 4Zm0 11-7 7H30v4h36v-4H55l-7-7ZM34 31v28l14 20 14-20V31H34ZM28 36 10 48l22 7V43l-4-7Zm40 0 18 12-22 7V43l4-7Zm7-16 10 9-14 4v-7l4-6Zm-54 0-10 9 14 4v-7l-4-6Z"/>
  <path fill="#fff" mask="url(#skull-cut)" d="M48 30c-9 0-16 7-16 16 0 6 3 10 8 13v10h16V59c5-3 8-7 8-13 0-9-7-16-16-16Zm-8 29h16l2 6H38l2-6Z"/>
</svg>
