<svg xmlns="http://www.w3.org/2000/svg" viewBox="0 0 512 512"><g transform="translate(0 448) scale(1 -1)"><path d="M432 128c8.83105 0 16 -7.16895 16 -16v-128c0 -26.4922 -21.5078 -48 -48 -48h-352c-26.4922 0 -48 21.5078 -48 48v352c0 26.4922 21.5078 48 48 48h160c8.83105 0 16 -7.16895 16 -16v-32c0 -8.83105 -7.16895 -16 -16 -16h-144v-320h320v112
c0 8.83105 7.16895 16 16 16h32zM488 448c13.2461 0 24 -10.7539 24 -24v-128c0 -21.5 -26 -32 -41 -17l-35.7197 35.6797l-243.61 -243.68c-4.34668 -4.36133 -10.3652 -7.0625 -17.0029 -7.0625s-12.6504 2.70117 -16.9971 7.0625l-22.6699 22.6299
c-4.36133 4.34668 -7.0625 10.3652 -7.0625 17.0029c0 6.63867 2.70117 12.6504 7.0625 16.9971l243.73 243.64l-35.7305 35.7305c-15.0498 15.0898 -4.37012 41 17 41h128z"/></g></svg>
