<svg xmlns="http://www.w3.org/2000/svg" viewBox="0 0 512 512"><g transform="translate(0 448) scale(1 -1)"><path d="M504 192c0 -136.967 -111.033 -248 -248 -248s-248 111.033 -248 248s111.033 248 248 248s248 -111.033 248 -248zM227.314 60.6855l184 184c6.24707 6.24805 6.24707 16.3799 0 22.6279l-22.6279 22.627c-6.24707 6.24902 -16.3789 6.24902 -22.6279 0
l-150.059 -150.059l-70.0586 70.0596c-6.24805 6.24805 -16.3799 6.24805 -22.6279 0l-22.6279 -22.627c-6.24707 -6.24805 -6.24707 -16.3799 0 -22.6279l104 -104c6.24902 -6.24805 16.3799 -6.24805 22.6289 -0.000976562z"/></g></svg>
