<svg xmlns="http://www.w3.org/2000/svg" viewBox="0 0 64 64">
  <defs>
    <linearGradient id="gold" x1="12" x2="52" y1="8" y2="58" gradientUnits="userSpaceOnUse">
      <stop stop-color="#f6e3a7"/>
      <stop offset=".5" stop-color="#d8b15b"/>
      <stop offset="1" stop-color="#8b6828"/>
    </linearGradient>
    <linearGradient id="blue" x1="12" x2="52" y1="52" y2="14" gradientUnits="userSpaceOnUse">
      <stop stop-color="#58d69a"/>
      <stop offset="1" stop-color="#6fa8dc"/>
    </linearGradient>
  </defs>
  <rect width="64" height="64" rx="11" fill="#07090d"/>
  <path d="M32 5 54 18v28L32 59 10 46V18L32 5Z" fill="#0f141d" stroke="url(#gold)" stroke-width="2"/>
  <path d="M32 13 47 22v20L32 51 17 42V22l15-9Z" fill="none" stroke="#f0d587" stroke-width="2.4"/>
  <path d="M32 20 43 32 32 44 21 32 32 20Z" fill="url(#gold)"/>
  <path d="M32 25 38 32 32 39 26 32 32 25Z" fill="#07090d"/>
  <path d="M32 16v-8M32 56v-8M12 32h9M43 32h9" stroke="url(#blue)" stroke-width="2.2" stroke-linecap="round"/>
  <circle cx="32" cy="8" r="2.4" fill="#6fa8dc"/>
  <circle cx="32" cy="56" r="2.4" fill="#58d69a"/>
  <circle cx="12" cy="32" r="2.4" fill="#d8b15b"/>
  <circle cx="52" cy="32" r="2.4" fill="#d8b15b"/>
</svg>
