<svg xmlns="http://www.w3.org/2000/svg" viewBox="0 0 64 64" role="img" aria-label="D2 Exotic Collections">
  <defs>
    <linearGradient id="tileGold" x1="0" x2="0" y1="0" y2="1">
      <stop stop-color="#d9b246"/>
      <stop offset=".52" stop-color="#9b7a28"/>
      <stop offset="1" stop-color="#332b18"/>
    </linearGradient>
    <linearGradient id="edgeGold" x1="10" x2="54" y1="7" y2="57" gradientUnits="userSpaceOnUse">
      <stop stop-color="#fff0ad"/>
      <stop offset=".46" stop-color="#d8b15b"/>
      <stop offset="1" stop-color="#7d5b22"/>
    </linearGradient>
    <linearGradient id="blue" x1="6" x2="58" y1="32" y2="32" gradientUnits="userSpaceOnUse">
      <stop stop-color="#9cc7ff"/>
      <stop offset="1" stop-color="#58d69a"/>
    </linearGradient>
  </defs>
  <rect width="64" height="64" rx="10" fill="#07090d"/>
  <rect x="9" y="9" width="46" height="46" rx="5" fill="url(#tileGold)" stroke="url(#edgeGold)" stroke-width="2"/>
  <path d="M9 9h46v10H9z" fill="#fff0ad" opacity=".18"/>
  <path d="M9 44h46v11H9z" fill="#07090d" opacity=".48"/>
  <path d="M32 10a22 22 0 1 0 0 44 22 22 0 1 0 0-44Z" fill="none" stroke="#9cc7ff" stroke-width="1" stroke-dasharray="2 4" opacity=".38"/>
  <path d="M32 6v8M32 50v8M6 32h8M50 32h8" stroke="url(#blue)" stroke-width="2" stroke-linecap="round"/>
  <path d="M32 17 45 25v14L32 47 19 39V25Z" fill="#10151e" stroke="#fff0ad" stroke-width="1.8"/>
  <path d="M32 22 40 27v10l-8 5-8-5V27Z" fill="#d8b15b"/>
  <path d="M32 22v20M24 27l16 10M40 27 24 37" stroke="#fff0ad" stroke-width="1.2" opacity=".65"/>
  <text x="32" y="53" text-anchor="middle" fill="#f3f5f0" font-family="Inter,Segoe UI,Arial,sans-serif" font-size="9" font-weight="900" letter-spacing=".6">D2</text>
</svg>
