<svg xmlns="http://www.w3.org/2000/svg" viewBox="0 0 760 150" role="img" aria-labelledby="title desc">
  <title id="title">D2 Exotic Collections</title>
  <desc id="desc">Destiny inspired D2 Exotic Collections title mark.</desc>
  <defs>
    <linearGradient id="gold" x1="0" x2="1" y1="0" y2="1">
      <stop stop-color="#f6e3a7"/>
      <stop offset=".46" stop-color="#d8b15b"/>
      <stop offset="1" stop-color="#8b6828"/>
    </linearGradient>
    <linearGradient id="blue" x1="0" x2="1" y1="0" y2="0">
      <stop stop-color="#6fa8dc"/>
      <stop offset="1" stop-color="#58d69a"/>
    </linearGradient>
    <filter id="shadow" x="-10%" y="-30%" width="120%" height="160%">
      <feDropShadow dx="0" dy="5" stdDeviation="5" flood-color="#000" flood-opacity=".42"/>
    </filter>
  </defs>
  <rect x="0" y="0" width="760" height="150" rx="14" fill="#07090d" opacity=".01"/>
  <g filter="url(#shadow)">
    <path d="M74 11 126 41v58l-52 30-52-30V41l52-30Z" fill="#0f141d" stroke="url(#gold)" stroke-width="3"/>
    <path d="M74 27 111 49v42l-37 22-37-22V49l37-22Z" fill="none" stroke="#f0d587" stroke-width="4"/>
    <path d="M74 43 101 72 74 101 47 72 74 43Z" fill="url(#gold)"/>
    <path d="M74 55 90 72 74 89 58 72 74 55Z" fill="#07090d"/>
    <path d="M74 25V11M74 133v-18M20 72h19M109 72h19" stroke="url(#blue)" stroke-width="4" stroke-linecap="round"/>
    <circle cx="74" cy="11" r="5" fill="#6fa8dc"/>
    <circle cx="74" cy="133" r="5" fill="#58d69a"/>
    <circle cx="20" cy="72" r="5" fill="#d8b15b"/>
    <circle cx="128" cy="72" r="5" fill="#d8b15b"/>
  </g>
  <g filter="url(#shadow)">
    <text x="160" y="67" fill="#f3f5f0" font-family="Inter,Segoe UI,Arial,sans-serif" font-size="48" font-weight="900" letter-spacing="2">D2 EXOTIC</text>
    <text x="160" y="113" fill="url(#gold)" font-family="Inter,Segoe UI,Arial,sans-serif" font-size="44" font-weight="900" letter-spacing="1.5">COLLECTIONS</text>
    <path d="M161 126h414" stroke="url(#blue)" stroke-width="3" stroke-linecap="round"/>
    <path d="M596 126h42l16-16h78" stroke="#d8b15b" stroke-width="3" stroke-linecap="round" stroke-linejoin="round" opacity=".9"/>
    <path d="M684 108h42l-12 12h-42l12-12Z" fill="#d8b15b" opacity=".82"/>
  </g>
</svg>
